<mxfile host="65bd71144e">
    <diagram id="PeuqlHQSli3MDyPuYfEZ" name="Page-1">
        <mxGraphModel dx="629" dy="344" grid="1" gridSize="10" guides="1" tooltips="1" connect="1" arrows="1" fold="1" page="1" pageScale="1" pageWidth="827" pageHeight="1169" math="0" shadow="0">
            <root>
                <mxCell id="0"/>
                <mxCell id="1" parent="0"/>
                <mxCell id="2" value="servants" style="whiteSpace=wrap;html=1;align=center;" vertex="1" parent="1">
                    <mxGeometry x="140" y="140" width="100" height="40" as="geometry"/>
                </mxCell>
                <mxCell id="3" value="yrs_served" style="ellipse;whiteSpace=wrap;html=1;align=center;" vertex="1" parent="1">
                    <mxGeometry x="20" y="140" width="100" height="40" as="geometry"/>
                </mxCell>
                <mxCell id="4" value="servant_name" style="ellipse;whiteSpace=wrap;html=1;align=center;" vertex="1" parent="1">
                    <mxGeometry x="140" y="220" width="100" height="40" as="geometry"/>
                </mxCell>
                <mxCell id="5" value="id" style="ellipse;whiteSpace=wrap;html=1;align=center;fontStyle=4;" vertex="1" parent="1">
                    <mxGeometry x="140" y="60" width="100" height="40" as="geometry"/>
                </mxCell>
                <mxCell id="6" value="" style="endArrow=none;html=1;rounded=0;entryX=1;entryY=0.5;entryDx=0;entryDy=0;" edge="1" parent="1" target="3">
                    <mxGeometry relative="1" as="geometry">
                        <mxPoint x="140" y="160" as="sourcePoint"/>
                        <mxPoint x="400" y="170" as="targetPoint"/>
                    </mxGeometry>
                </mxCell>
                <mxCell id="7" value="" style="endArrow=none;html=1;rounded=0;exitX=0.5;exitY=1;exitDx=0;exitDy=0;entryX=0.5;entryY=0;entryDx=0;entryDy=0;" edge="1" parent="1" source="2" target="4">
                    <mxGeometry relative="1" as="geometry">
                        <mxPoint x="240" y="170" as="sourcePoint"/>
                        <mxPoint x="400" y="170" as="targetPoint"/>
                    </mxGeometry>
                </mxCell>
                <mxCell id="8" value="" style="endArrow=none;html=1;rounded=0;exitX=0.5;exitY=0;exitDx=0;exitDy=0;entryX=0.5;entryY=1;entryDx=0;entryDy=0;" edge="1" parent="1" source="2" target="5">
                    <mxGeometry relative="1" as="geometry">
                        <mxPoint x="240" y="170" as="sourcePoint"/>
                        <mxPoint x="400" y="170" as="targetPoint"/>
                    </mxGeometry>
                </mxCell>
                <mxCell id="9" value="products" style="whiteSpace=wrap;html=1;align=center;" vertex="1" parent="1">
                    <mxGeometry x="440" y="140" width="100" height="40" as="geometry"/>
                </mxCell>
                <mxCell id="10" value="product_name" style="ellipse;whiteSpace=wrap;html=1;align=center;" vertex="1" parent="1">
                    <mxGeometry x="560" y="140" width="100" height="40" as="geometry"/>
                </mxCell>
                <mxCell id="11" value="product_price" style="ellipse;whiteSpace=wrap;html=1;align=center;" vertex="1" parent="1">
                    <mxGeometry x="440" y="220" width="100" height="40" as="geometry"/>
                </mxCell>
                <mxCell id="12" value="id" style="ellipse;whiteSpace=wrap;html=1;align=center;fontStyle=4;" vertex="1" parent="1">
                    <mxGeometry x="440" y="60" width="100" height="40" as="geometry"/>
                </mxCell>
                <mxCell id="13" value="" style="endArrow=none;html=1;rounded=0;exitX=0.5;exitY=1;exitDx=0;exitDy=0;entryX=0.5;entryY=0;entryDx=0;entryDy=0;" edge="1" parent="1" source="9" target="11">
                    <mxGeometry relative="1" as="geometry">
                        <mxPoint x="540" y="170" as="sourcePoint"/>
                        <mxPoint x="700" y="170" as="targetPoint"/>
                    </mxGeometry>
                </mxCell>
                <mxCell id="14" value="" style="endArrow=none;html=1;rounded=0;exitX=0.5;exitY=0;exitDx=0;exitDy=0;entryX=0.5;entryY=1;entryDx=0;entryDy=0;" edge="1" parent="1" source="9" target="12">
                    <mxGeometry relative="1" as="geometry">
                        <mxPoint x="540" y="170" as="sourcePoint"/>
                        <mxPoint x="700" y="170" as="targetPoint"/>
                    </mxGeometry>
                </mxCell>
                <mxCell id="15" value="" style="endArrow=none;html=1;rounded=0;exitX=1;exitY=0.5;exitDx=0;exitDy=0;entryX=0;entryY=0.5;entryDx=0;entryDy=0;" edge="1" parent="1" source="9" target="10">
                    <mxGeometry relative="1" as="geometry">
                        <mxPoint x="500" y="150" as="sourcePoint"/>
                        <mxPoint x="500" y="110" as="targetPoint"/>
                    </mxGeometry>
                </mxCell>
                <mxCell id="16" value="puchases" style="shape=rhombus;perimeter=rhombusPerimeter;whiteSpace=wrap;html=1;align=center;" vertex="1" parent="1">
                    <mxGeometry x="280" y="130" width="120" height="60" as="geometry"/>
                </mxCell>
                <mxCell id="17" value="" style="endArrow=none;html=1;rounded=0;exitX=1;exitY=0.5;exitDx=0;exitDy=0;" edge="1" parent="1" source="2">
                    <mxGeometry relative="1" as="geometry">
                        <mxPoint x="260" y="170" as="sourcePoint"/>
                        <mxPoint x="280" y="160" as="targetPoint"/>
                    </mxGeometry>
                </mxCell>
                <mxCell id="18" value="" style="endArrow=none;html=1;rounded=0;exitX=1;exitY=0.5;exitDx=0;exitDy=0;entryX=0;entryY=0.5;entryDx=0;entryDy=0;" edge="1" parent="1" source="16" target="9">
                    <mxGeometry relative="1" as="geometry">
                        <mxPoint x="250" y="170" as="sourcePoint"/>
                        <mxPoint x="290" y="170" as="targetPoint"/>
                    </mxGeometry>
                </mxCell>
                <mxCell id="19" value="n" style="text;strokeColor=none;fillColor=none;spacingLeft=4;spacingRight=4;overflow=hidden;rotatable=0;points=[[0,0.5],[1,0.5]];portConstraint=eastwest;fontSize=12;" vertex="1" parent="1">
                    <mxGeometry x="240" y="130" width="20" height="30" as="geometry"/>
                </mxCell>
                <mxCell id="20" value="m" style="text;strokeColor=none;fillColor=none;spacingLeft=4;spacingRight=4;overflow=hidden;rotatable=0;points=[[0,0.5],[1,0.5]];portConstraint=eastwest;fontSize=12;" vertex="1" parent="1">
                    <mxGeometry x="420" y="130" width="20" height="30" as="geometry"/>
                </mxCell>
            </root>
        </mxGraphModel>
    </diagram>
</mxfile>

